<?xml version="1.0" encoding="utf-8" ?>
<svg xmlns="http://www.w3.org/2000/svg" xmlns:xlink="http://www.w3.org/1999/xlink" width="4075" height="2592">
	<path transform="scale(6.02811 6.02791)" d="M633.034 0L650.187 0C650.237 0.0378365 650.285 0.0778513 650.336 0.11351C653.387 2.23438 663.987 1.12038 665.936 5.77493C665.815 6.83406 665.18 7.48061 664.38 8.1257C661.291 10.6172 656.689 11.5659 653.076 13.2227C648.645 15.2549 644.853 18.455 640.449 20.4187C633.183 23.6585 622.044 25.2661 614.063 27.0431C615.28 27.3944 616.509 27.7126 617.778 27.7982C620.525 27.9838 630.733 27.1292 631.904 29.4514C632.449 30.5317 632.145 31.8688 631.739 32.9481C630.097 37.3091 625.849 40.4837 624.354 44.9764C622.029 51.9651 623.227 68.2456 619.101 72.2909C616.43 74.9096 612.294 75.2103 609.527 77.8227C605.206 81.9037 604.61 85.6869 598.488 88.3601C596.005 89.444 593.287 90.3198 591.075 91.9085C588.553 93.7199 586.472 96.2412 583.783 97.7943C574.625 103.082 556.691 103.489 546.603 101.024C546.604 101.163 546.61 101.302 546.606 101.441C546.551 103.448 544.326 106.304 542.818 107.589C539.431 110.478 535.503 111.389 531.541 113.127C529.698 113.935 527.899 115.073 526.2 116.156C522.409 118.574 518.597 121.408 515.254 124.417C511.692 127.623 508.208 131.352 504.231 134.027C499.982 136.885 486.684 142.773 484.31 146.058L484.502 146.556C486.466 147.006 489.739 145.627 491.402 144.628C496.789 141.389 501.33 136.195 506.937 133.494C517.407 128.45 530.975 125.748 542.14 121.674C545.978 120.274 549.499 118.123 553.313 116.718C556.484 115.55 560.023 115.141 563.111 113.794C566.117 112.483 568.931 110.647 571.896 109.228C577.361 106.613 583.784 104.827 589.692 103.529C594.488 102.475 598.377 102.929 603.102 103.966C604.806 104.341 606.873 104.905 607.884 106.439C608.093 106.756 608.045 107.276 608.072 107.655C606.719 111.304 600.636 114.596 597.582 117.11C596.566 117.947 595.794 119.066 594.722 119.834C595.137 121.102 594.937 122.233 595.181 123.504C595.636 125.869 597.31 129.773 596.966 132.045C596.921 132.341 596.671 132.756 596.528 133.032C594.696 136.569 591.107 139.694 588.652 142.918C582.228 151.354 571.93 165.396 567.288 174.705C563.914 181.472 569.07 189.318 566.553 193.362C566.239 194.866 564.637 196.137 563.4 196.946C556.322 201.577 540.874 203.217 532.473 203.337C534.826 204.643 536.315 207.595 538.773 208.479C540.939 209.258 544.802 207.078 547.169 206.95C554.908 206.529 563.433 206.349 570.868 208.773C578.365 211.218 576.546 214.851 581.194 219.44C584.017 222.227 588.458 224.31 591.936 226.25C595.042 228.018 598.376 229.351 601.845 230.212C604.863 230.941 608.028 231.157 611.1 231.574C618.563 232.587 626.129 234.74 632.043 239.613C633.752 241.021 635.586 242.567 636.767 244.45C636.853 245.3 636.771 245.631 636.228 246.328C631.805 252.006 620.593 249.501 614.316 257.456C610.88 261.81 607.257 266.598 604.533 271.426C602.531 274.975 602.506 279.202 599.455 282.232C598.015 283.661 595.76 284.051 593.817 284.176C582.404 284.906 571.671 277.613 560.365 280.906C554.022 282.754 548.431 286.617 542.359 289.033L542.596 289.205C544.88 290.891 546.409 293.191 549.375 293.723C554.805 294.696 560.685 293.353 566.114 292.985C570.892 292.66 575.898 292.75 580.685 292.898C583.55 292.987 586.397 293.459 589.25 293.712C592.373 293.988 595.524 293.862 598.642 294.208C604.157 294.819 609.607 295.993 615.116 296.644C618.343 297.025 621.59 296.862 624.828 297.021C627.9 297.171 630.944 297.724 634.019 297.877C647.891 298.567 661.548 296.332 675.43 296.992C676.318 298.472 676.216 301.251 675.795 302.897C675.756 303.046 675.7 303.186 675.647 303.33C672.942 307.908 667.472 311.085 662.441 312.401C653.333 314.785 640.142 314.154 630.596 314.163C626.459 314.167 622.503 314.757 618.392 315.019C610.465 315.522 602.506 315.575 594.763 317.633C592.256 318.3 589.959 319.318 587.517 320.135C591.464 321.091 597.122 322.201 599.452 325.888C600.222 327.107 600.373 328.546 600.013 329.931C599.391 332.318 588.916 337.589 586.283 339C576.937 344.007 567.096 348.051 558.253 353.972C551.919 358.212 546.72 364.143 540.063 367.883C537.044 369.579 533.849 370.742 530.391 371.082C520.899 372.018 511.379 368.729 501.748 369.13C494.086 369.448 486.988 373.694 479.249 371.39C474.438 369.958 469.783 367.897 464.982 366.376C460.233 364.872 435.75 357.979 432.148 359.851C431.966 359.945 431.887 360.032 431.724 360.17C431.894 360.864 432.251 361.025 432.869 361.392C437.331 364.044 449.769 364.481 451.122 370.315C451.401 371.518 451.114 372.947 450.445 373.976C448.101 377.582 440.393 377.695 436.483 378.822C432.056 380.098 428.362 384.083 424.041 384.859C408.203 387.7 405.289 379.745 392.923 376.548C384.897 374.473 377.721 376.13 370.092 374.698C364.596 373.667 359.155 371.423 353.933 369.464C346.763 366.722 339.571 364.041 332.356 361.421C322.898 358.067 313.365 353.522 303.462 351.736C295.396 350.281 278.94 353.123 273.109 349.081C271.931 348.264 271.115 347.188 270.913 345.745C270.769 344.714 271.053 344.064 271.67 343.252C272.052 342.75 272.487 342.28 272.91 341.813L272.785 341.377C265.519 340.169 257.341 346.339 250.638 347.126C246.433 347.619 241.769 345.286 237.744 346.558C233.437 347.92 229.004 351.309 224.872 353.302C219.858 355.719 214.529 357.534 209.392 359.678C205.974 361.105 202.726 362.922 199.282 364.29C194.902 366.031 189.582 367.79 184.965 368.664C179.341 369.728 173.643 370.218 168.069 371.583C163.742 372.642 159.511 374.057 155.194 375.147C151.533 376.072 147.817 376.634 144.17 377.656C139.387 378.997 134.558 380.847 129.688 381.778C127.123 382.269 124.554 382.136 121.958 382.066C121.907 380.738 121.966 379.37 121.474 378.12C121.218 378.018 121.083 377.873 120.819 377.995C119.215 378.736 117.59 381.369 116.514 382.795C114.337 385.679 112.248 388.709 109.9 391.454C107.944 393.742 105.722 395.79 103.737 398.052C100.459 401.785 97.4371 405.444 93.5929 408.626C85.6985 415.161 72.8769 422.71 63.2349 426.405C60.3402 427.514 53.2634 428.467 51.1696 430L41.1336 430C39.2315 428.014 35.7107 426.541 35.0701 423.597C34.0381 418.854 36.8695 407.185 37.5224 401.692C38.2172 395.847 38.566 389.967 39.137 384.113C39.3474 381.956 39.767 379.814 39.9284 377.653C40.2077 373.915 39.7909 370.11 39.9532 366.36C40.0929 363.131 40.7179 359.931 40.8765 356.699C41.3396 347.26 41.2455 336.338 40.9233 326.879C40.8272 324.055 40.3663 321.253 40.1422 318.438C39.9143 315.576 40.003 312.691 39.5919 309.843C38.8559 304.744 37.7122 299.725 37.1804 294.589C36.7962 290.878 37.0058 287.126 36.8544 283.402C36.7469 280.757 36.3352 278.129 36.153 275.488C35.961 272.705 36.0115 269.914 35.8226 267.135C35.3439 260.092 33.8303 247.128 35.251 240.667C35.8236 238.063 38.0528 235.682 39.4479 233.43L40.3501 231.966C39.6457 228.265 37.8531 224.991 36.1835 221.655C34.2218 217.735 32.2804 213.785 30.1706 209.943C27.3486 204.804 24.1083 199.829 22.3528 194.186C19.8673 186.196 21.8892 178.001 20.1243 169.945C18.8308 164.041 15.5883 158.361 13.2064 152.809C10.9515 147.554 9.04183 141.867 7.42971 136.383C5.19467 128.78 3.52392 120.785 1.96869 113.012C1.54266 110.883 1.23945 105.454 0.476551 103.936C0.345018 103.674 0.176171 103.437 0 103.205L0 88.6434C1.48955 87.7289 2.77849 86.2549 4.18964 85.1854C6.12483 83.7187 8.25913 82.5224 10.2598 81.1463C12.347 79.7106 14.3455 78.0346 16.5249 76.753C18.9076 75.3519 21.6608 74.4029 24.2021 73.3196C30.2572 70.7385 36.272 68.3101 42.4417 66.0176C45.2491 64.9745 47.7816 63.3313 50.5534 62.2267C55.7804 60.1439 64.1669 58.0112 69.7559 56.8697C77.1519 55.3592 85.1326 55.5585 92.3351 53.4707C99.3436 51.4391 104.831 46.1975 112.174 44.9922C115.784 44.3998 119.154 46.0251 122.73 45.6828C128.101 45.1686 133.374 42.8814 138.777 42.133C142.277 41.6481 145.869 41.1509 149.392 40.9361C154.815 40.6055 159.787 40.6321 165.182 39.6398C174.313 37.9602 182.793 33.6077 191.854 32.1213C194.636 31.665 197.628 31.7451 200.442 31.7458C202.942 31.7465 205.588 31.6836 208.013 32.3705C212.027 33.5081 210.171 34.5449 211.434 36.8428C213.636 36.6763 215.626 34.586 217.779 33.9688C222.544 32.6028 228.916 35.5781 233.838 35.8031C240.25 36.0962 246.285 34.937 252.62 34.8105C257.177 34.7194 261.535 35.3512 266.057 35.6739C273.823 36.2283 290.39 36.3638 296.895 40.0626C300.207 41.9459 298.995 44.735 299.937 47.6775C301.945 53.9524 313.102 50.8915 317.722 52.2908C321.473 53.4269 324.466 56.3461 327.94 58.0926C333.174 60.7234 339.117 59.6425 344.765 59.9075C349.851 60.1461 355.393 60.5498 360.379 61.5291C364.974 62.4316 369.438 64.0787 373.969 65.265C383.779 67.8335 397.161 71.2752 407.269 71.7633C413.834 72.0803 420.029 71.4844 426.523 70.6387C433.026 69.7917 440.121 68.6607 446.178 66.0452C449.141 64.7658 452.11 63.1052 454.642 61.1016C458.783 57.8247 462.295 53.1325 467.494 51.4414C474.068 49.3032 481.279 53.6826 486.908 56.6167C489.969 55.373 491.942 51.6842 495.518 50.3363C500.204 48.5694 508.026 51.2738 512.673 52.491C514.108 52.8668 515.858 53.5297 517.335 53.4848C518.367 53.4534 520.164 52.484 520.861 51.6844C521.293 51.188 521.23 50.9962 521.211 50.3772C519.636 48.0559 513.885 47.7114 511.314 46.1096C510.449 45.5701 509.947 45.1104 509.711 44.1055C509.824 43.8149 509.922 43.5532 510.114 43.3037C512.805 39.8085 520.644 40.0243 524.699 39.6064C529.516 37.4704 538.063 26.0416 543.799 22.0299C552.111 16.2156 563.154 16.4025 572.82 15.53C580.146 14.8686 587.666 14.1752 594.832 12.4337C600.675 11.0137 606.073 8.14246 611.705 6.09288C615.888 4.57054 620.542 3.66152 624.87 2.60058C626.605 2.17525 632.268 1.25528 633.034 0ZM549.167 232.921C551.04 232.87 558.042 232.554 559.205 231.24C559.269 231.168 559.323 231.088 559.382 231.011C559.175 230.126 558.896 229.913 558.116 229.439C557.164 228.86 544.921 224.879 544.073 224.9C540.764 227.039 536.641 228.683 532.989 230.202C538.509 231.378 543.452 233.026 549.167 232.921ZM586.509 249.847C588.576 249.604 590.345 249.173 592.096 248.006C589.54 246.353 583.036 245.767 579.649 244.544C576.887 243.547 570.495 240.1 567.909 240.681C567.833 240.699 567.758 240.72 567.682 240.74C566.534 242.435 563.728 243.453 561.839 244.029C567.35 245.705 581.058 250.32 586.509 249.847ZM509.713 282.785C514.898 281.914 523.211 280.344 526.438 275.761C526.73 275.346 526.828 275.079 526.907 274.587C524.713 274.039 522.35 274.223 520.115 274.401C515.294 275.602 506.792 277.076 503.952 281.492L503.965 282.198C505.336 283.259 508.083 282.964 509.713 282.785ZM467.471 136.456C465.474 137.696 463.105 140.061 462.558 142.435C462.43 142.991 462.586 143.115 462.841 143.624C464.884 143.013 466.919 140.658 467.923 138.816C468.252 138.212 468.421 137.77 468.392 137.084C468.031 136.675 467.99 136.597 467.471 136.456ZM488.066 126.762C489.458 126.462 490.843 126.155 492.22 125.795C493.818 125.467 495.598 124.184 496.507 122.835C496.714 122.528 496.705 122.089 496.756 121.724C496.107 120.81 495.467 120.496 494.343 120.292C491.973 119.863 489.065 120.073 486.665 120.287C484.774 121.67 484.399 123.6 482.842 125.078C484.569 125.575 486.448 125.975 488.066 126.762ZM549.17 337.763C547.258 338.38 542.47 338.782 541.478 340.272C541.349 341.219 541.634 341.672 542.091 342.487C543.692 342.911 544.773 342.483 546.132 341.676C547.473 340.88 548.693 339.824 549.597 338.548L549.666 337.975L549.17 337.763ZM276.332 59.453C274.07 59.9714 269.755 60.4942 268.474 62.7177C268.349 62.9344 268.324 63.0619 268.241 63.3121C268.671 64.112 268.911 64.2511 269.803 64.5134C273.475 65.5922 280.14 64.8401 284.138 64.7743C286.076 64.4766 289.206 64.3575 290.878 63.3894L290.962 62.9008C287.998 60.6738 280.139 60.2846 276.332 59.453ZM86.9955 387.444C82.2698 388.915 77.7762 389.448 75.269 394.243C74.6191 395.486 73.7395 397.763 74.2474 399.15C74.4634 399.749 74.9275 400.225 75.5205 400.457C75.7752 400.559 75.8628 400.546 76.1065 400.556C80.4951 398.853 87.1333 393.7 88.8806 389.149C89.072 388.65 89.0616 388.384 88.8166 387.927C88.2005 387.64 87.6972 387.329 86.9955 387.444Z"/>
	<path fill="#FEFEFE" transform="scale(6.02811 6.02791)" d="M332.497 98.6619C333.352 98.6561 334.265 98.7353 334.973 99.2562C341.142 103.794 338.875 125.815 339.769 133.221C341.978 135.838 345.32 137.511 348.192 139.305C353.644 142.711 359.246 147.203 362.736 152.676C366.82 159.079 368.368 168.306 367.879 175.832C367.621 179.798 366.874 183.681 366.504 187.633C366.037 192.617 365.885 198.145 364.748 203.003C364.303 204.905 363.475 206.697 361.705 207.711C360.251 208.543 358.724 208.364 357.183 207.966C355.94 205.053 358.15 192.389 358.433 188.682C359.005 181.206 360.059 168.989 358.376 162.031C357.469 158.279 354.883 155.215 351.617 153.231C344.503 148.908 333.403 150.143 325.619 152.063C304.417 157.266 286.179 170.735 274.972 189.466C269.046 199.28 264.808 208.899 264.425 220.469C264.283 224.768 264.456 229.156 265.557 233.333C268.875 245.92 279.774 256.869 288.681 265.837C296.431 273.64 304.101 280.331 306.805 291.522C307.289 293.526 307.983 297.922 306.687 299.725C306.372 300.163 306.294 300.06 305.803 300.138C302.09 298.54 300.186 290.287 297.965 286.898L297.753 286.58C296.931 285.656 295.642 284.58 294.386 284.346C293.934 284.262 294.091 284.229 293.776 284.428L293.71 284.679C293.465 285.626 295.462 288.206 296.001 289.054C299.022 293.805 299.873 296.701 300.264 302.324C292.072 287.564 274.08 281.357 259.76 274.142C249.562 269.005 229.856 258.442 226.241 247.524C232.146 249.327 237.498 252.535 243.443 254.097C237.585 248.607 231.516 245.766 225.908 239.174C206.891 216.819 207.599 179.551 220.435 154.431C222.628 150.14 231.378 139.919 232.013 137.617C232.693 135.148 231.717 132.206 231.606 129.687C231.543 128.256 231.688 126.795 231.807 125.37C232.265 119.883 233.594 102.649 237.225 99.5814C238.354 99.1484 239.431 99.0871 240.618 99.2417C247.31 100.113 254.865 105.446 260.165 109.396C262.867 111.409 265.853 114.074 269.103 115.093C274.814 116.883 281.594 113.954 287.587 114.333C294.752 114.786 301.767 116.706 308.745 118.298C311.299 116.439 313.479 113.914 315.723 111.696C320.508 106.964 326.398 101.592 332.497 98.6619Z"/>
	<path fill="#FEFEFE" transform="scale(6.02811 6.02791)" d="M322.144 184.255C333.245 183.3 330.773 192.328 337.492 197.48C340.169 199.532 343.847 199.152 346.534 201.048C348.408 202.369 349.155 204.366 349.479 206.551C349.983 209.951 345.305 209.784 343.611 211.996C344.153 212.839 347.268 213.202 348.337 213.452C348.198 214.666 348.122 216.998 347.375 217.951C346.537 219.017 344.523 218.478 343.282 218.612C342.75 219.175 342.829 219.231 342.81 219.971C343.418 221.028 344.429 221.546 345.432 222.186C343.263 226.873 339.433 231.567 335.771 235.184C328.204 242.657 318.75 246.768 308.053 246.667C300.448 246.594 292.812 244.524 287.353 238.985C291.558 233.673 296.658 229.641 302.584 226.404C304.866 225.158 307.466 224.065 309.59 222.588C310.296 222.097 310.578 221.785 310.861 220.964L310.333 220.688C308.817 220.832 307.36 221.448 305.942 221.972C298.39 224.766 293.035 229.508 287.407 235.082C286.365 236.19 285.153 237.131 283.981 238.098C280.748 234.676 278.075 230.745 275.322 226.939C278.716 225.579 282.135 224.18 285.671 223.231C289.351 222.242 293.304 221.655 296.851 220.26C297.708 219.923 298.049 219.816 298.412 218.961L297.986 218.523C293.168 217.57 279.715 222.434 274.637 224.12C274.34 222.228 273.745 219.74 275.028 218.106C275.613 217.36 276.46 216.835 277.354 216.542C281.828 215.073 296.107 213.87 300.933 213.95C304.073 214.002 307.501 215.017 310.6 214.557C311.413 214.436 311.686 214.372 312.178 213.735C312.115 213.667 312.059 213.592 311.99 213.531C311.15 212.795 309.273 212.722 308.163 212.561C296.989 210.949 286.525 213.035 275.475 214.138C284.439 198.178 293.069 205.92 305.084 199.749C312.808 195.783 313.339 187.411 322.144 184.255Z"/>
	<path transform="scale(6.02811 6.02791)" d="M322.524 208.312C325.594 208.127 329.342 207.679 332.367 208.078C333.428 208.218 333.764 208.455 334.389 209.242C334.766 211.609 332.639 214.101 331.423 215.994C330.56 217.329 329.519 218.512 328.491 219.721C327.654 218.861 326.887 217.911 326.174 216.948C324.347 214.476 322.04 211.533 322.524 208.312Z"/>
	<path fill="#FEFEFE" transform="scale(6.02811 6.02791)" d="M354.439 224.027C355.759 223.968 357.022 223.948 358.268 224.46C359.116 224.808 359.494 225.233 359.849 226.055C360.025 228.941 357.728 232.504 356.389 234.992C352.783 241.758 348.441 248.105 343.441 253.917C339.174 258.828 326.088 269.786 324.206 274.489C322.841 277.9 323.105 290.745 322.714 295.386C322.565 297.165 322.347 299.548 321.128 300.945L320.628 300.809C317.804 295.747 321.167 285.436 319.033 281.013L318.493 280.957C317.748 281.704 317.422 282.623 317.009 283.574C315.944 288.042 316.945 299.124 315.778 301.5C315.369 302.332 314.999 302.471 314.198 302.801C313.232 302.68 312.668 302.267 312.012 301.559C309.351 298.689 309.906 293.895 310.06 290.317C310.326 284.143 311.342 278.315 314.546 272.904C319.766 264.087 334.202 253.05 341.393 244.105C343.801 241.109 345.852 237.799 347.748 234.463C349.767 230.909 351.389 226.829 354.439 224.027Z"/>
	<path fill="#FEFEFE" transform="scale(6.02811 6.02791)" d="M355.086 216.765C355.879 216.841 356.669 216.95 357.445 217.133C360.558 217.869 373.259 221.353 374.631 224.133C375.042 224.966 374.712 225.415 374.386 226.186C373.828 226.287 373.227 226.405 372.658 226.398C371.405 226.381 355.359 220.783 354.915 220.31C354.448 219.141 354.834 217.945 355.086 216.765Z"/>
	<path fill="#FEFEFE" transform="scale(6.02811 6.02791)" d="M357.728 210.681C360.906 210.613 370.965 209.929 373.247 211.083C373.635 211.28 373.835 211.795 373.916 212.217C374.05 212.919 373.829 213.522 373.447 214.091L372.411 214.246C368.48 214.221 361.366 214.809 357.942 214.172C356.859 213.971 356.406 213.676 355.785 212.841C355.769 212.534 355.658 212.097 355.823 211.828C356.288 211.071 356.895 210.849 357.728 210.681Z"/>
</svg>
